#!OML:ASF E:\motion texture\Top Level 1\Subject 1\Session 1\male.ASF
:FULLY-SPECIFIED
:DEGREES
113
root 14.7348 17.4589 5.37829 232.288 -87.1034 -224.185
lowerback 1.19092 -3.23219 -3.53165
upperback -2.03369 -4.36723 4.00789
thorax -2.1905 -2.10678 6.25597
lowerneck -18.3754 -1.03813 -2.51965
upperneck 11.732 -2.10113 7.90481
head 6.70616 -0.453162 2.7456
rclavicle 6.16232e-015 7.95139e-016
rhumerus -52.1109 -22.4211 -58.9933
rradius 14.3008
rwrist 28.883
rhand -1.47681 -23.8098
rfingers 7.12502
rthumb 24.1751 -52.3062
lclavicle 6.16232e-015 7.95139e-016
lhumerus -36.7713 -49.8316 119.895
lradius 74.4299
lwrist -10.1648
lhand -9.60181 7.0571
lfingers 7.12502
lthumb 16.3671 36.3865
rfemur -37.2724 -2.14085 14.4011
rtibia 20.7621
rfoot -4.68676 -12.3018
rtoes 2.70051
lfemur 5.0436 -6.51328 -24.718
ltibia 17.2286
lfoot -16.5587 -3.16592
ltoes -13.0111
114
root 14.5726 17.4599 5.33959 232.509 -87.3252 -224.38
lowerback 1.23627 -3.26962 -3.34972
upperback -2.0014 -4.41482 4.16583
thorax -2.17733 -2.13563 6.3213
lowerneck -18.402 -1.01061 -2.46029
upperneck 11.6517 -2.04308 7.73566
head 6.6782 -0.43721 2.68626
rclavicle 3.84648e-014 -1.27222e-014
rhumerus -52.5874 -23.2898 -57.6039
rradius 13.9936
rwrist 30.112
rhand -1.73407 -24.089
rfingers 7.12502
rthumb 23.9284 -52.6181
lclavicle 3.84648e-014 -1.27222e-014
lhumerus -36.7223 -49.4577 119.56
lradius 74.1505
lwrist -9.29204
lhand -9.39872 7.44015
lfingers 7.12502
lthumb 16.5626 36.7533
rfemur -37.1552 -1.94928 14.6199
rtibia 21.3065
rfoot -3.94717 -12.3125
rtoes 2.73816
lfemur 5.29258 -6.7656 -24.495
ltibia 17.7162
lfoot -16.2704 -3.17773
ltoes -14.2785
115
root 14.4087 17.4645 5.30155 231.05 -87.6071 -222.882
lowerback 1.26946 -3.29875 -3.06121
upperback -1.98043 -4.4492 4.35362
thorax -2.17632 -2.15961 6.35725
lowerneck -18.4281 -0.990359 -2.41606
upperneck 11.5884 -1.9922 7.56621
head 6.65628 -0.425054 2.62877
rclavicle -2.89232e-014 -7.95139e-015
rhumerus -53.0644 -24.2256 -56.118
rradius 13.684
rwrist 31.4417
rhand -2.04488 -24.3989
rfingers 7.12502
rthumb 23.6303 -52.9667
lclavicle -2.89232e-014 -7.95139e-015
lhumerus -36.6431 -48.9635 119.216
lradius 73.647
lwrist -8.64104
lhand -9.30881 7.80012
lfingers 7.12502
lthumb 16.6492 37.1061
rfemur -37.0145 -1.72066 14.9166
rtibia 21.6869
rfoot -3.01956 -12.4568
rtoes 2.51939
lfemur 5.48925 -7.03559 -24.1694
ltibia 18.2661
lfoot -15.9085 -3.16481
ltoes -15.6346
116
root 14.2428 17.4729 5.26473 226.866 -87.9118 -218.643
lowerback 1.27378 -3.31223 -2.67652
upperback -1.96572 -4.46092 4.56483
thorax -2.17391 -2.17436 6.36138
lowerneck -18.4531 -0.97798 -2.38642
upperneck 11.5319 -1.9489 7.39731
head 6.63705 -0.417007 2.57313
rclavicle 2.19657e-014 -9.54166e-015
rhumerus -53.533 -25.1976 -54.5771
rradius 13.3902
rwrist 32.8296
rhand -2.39753 -24.7307
rfingers 7.12502
rthumb 23.2921 -53.3418
lclavicle 2.19657e-014 -9.54166e-015
lhumerus -36.5018 -48.3274 118.832
lradius 72.9113
lwrist -8.27809
lhand -9.22505 8.06033
lfingers 7.12502
lthumb 16.7298 37.3595
rfemur -36.877 -1.4906 15.3136
rtibia 22.0034
rfoot -1.98849 -12.6456
rtoes 2.36336
lfemur 5.62008 -7.28761 -23.755
ltibia 18.8921
lfoot -15.4732 -3.14304
ltoes -17.0388
117
root 14.0746 17.4849 5.22905 219.132 -88.1851 -210.834
lowerback 1.24187 -3.30645 -2.23231
upperback -1.96196 -4.44636 4.78839
thorax -2.16935 -2.17732 6.34246
lowerneck -18.4599 -0.973015 -2.3718
upperneck 11.4776 -1.91282 7.2324
head 6.6161 -0.413066 2.52045
rclavicle 2.89232e-014 -1.90833e-014
rhumerus -53.9877 -26.1629 -53.0333
rradius 13.1242
rwrist 34.2226
rhand -2.78129 -25.0828
rfingers 7.12502
rthumb 22.9239 -53.74
lclavicle 2.89232e-014 -1.90833e-014
lhumerus -36.3177 -47.5486 118.423
lradius 71.9456
lwrist -8.16709
lhand -9.18371 8.24818
lfingers 7.12502
lthumb 16.7696 37.544
rfemur -36.749 -1.30909 15.8134
rtibia 22.336
rfoot -0.940307 -12.7759
rtoes 2.51929
lfemur 5.67767 -7.49855 -23.2844
ltibia 19.5985
lfoot -14.9517 -3.1296
ltoes -18.4456
118
root 13.9037 17.5002 5.19372 208.292 -88.3548 -199.907
lowerback 1.17558 -3.27975 -1.79767
upperback -1.96916 -4.40529 5.01073
thorax -2.15941 -2.16708 6.32551
lowerneck -18.4378 -0.974478 -2.37549
upperneck 11.4265 -1.88258 7.07521
head 6.59199 -0.412538 2.4726
rclavicle 8.84592e-015 3.18055e-014
rhumerus -54.405 -27.0626 -51.5606
rradius 12.8977
rwrist 35.5388
rhand -3.192 -25.4406
rfingers 7.12502
rthumb 22.5297 -54.1462
lclavicle 8.84592e-015 3.18055e-014
lhumerus -36.1052 -46.6342 117.998
lradius 70.7603
lwrist -8.24
lhand -9.26366 8.3799
lfingers 7.12502
lthumb 16.6926 37.6822
rfemur -36.6203 -1.19606 16.3715
rtibia 22.7213
rfoot 0.0313511 -12.7574
rtoes 3.20891
lfemur 5.65933 -7.64222 -22.8103
ltibia 20.3998
lfoot -14.3377 -3.1526
ltoes -19.8619
119
root 13.7307 17.5176 5.15785 197.194 -88.3951 -188.707
lowerback 1.07354 -3.23524 -1.4294
upperback -1.98736 -4.34309 5.21546
thorax -2.13961 -2.14518 6.32551
lowerneck -18.4031 -0.981363 -2.38517
upperneck 11.3867 -1.85963 6.92113
head 6.56998 -0.415529 2.42606
rclavicle -1.90833e-014 7.79236e-014
rhumerus -54.7516 -27.8594 -50.2441
rradius 12.7225
rwrist 36.6903
rhand -3.61539 -25.8276
rfingers 7.12502
rthumb 22.1233 -54.5819
lclavicle -1.90833e-014 7.79236e-014
lhumerus -35.859 -45.6005 117.545
lradius 69.3716
lwrist -8.47078
lhand -9.45118 8.50589
lfingers 7.12502
lthumb 16.5121 37.8233
rfemur -36.4901 -1.14947 16.9221
rtibia 23.1535
rfoot 0.855905 -12.5481
rtoes 4.4698
lfemur 5.54348 -7.71658 -22.3765
ltibia 21.3155
lfoot -13.6178 -3.24119
ltoes -21.2492
120
root 13.5565 17.5362 5.12084 189.011 -88.3359 -180.416
lowerback 0.955783 -3.17737 -1.16912
upperback -2.01787 -4.26586 5.39383
thorax -2.11946 -2.11348 6.35849
lowerneck -18.3593 -0.993176 -2.40091
upperneck 11.3695 -1.84346 6.76781
head 6.5542 -0.421731 2.38023
rclavicle 3.45885e-014 -2.38542e-014
rhumerus -55.0144 -28.5364 -49.118
rradius 12.5951
rwrist 37.6496
rhand -4.06726 -26.2145
rfingers 7.12502
rthumb 21.6894 -55.0196
lclavicle 3.45885e-014 -2.38542e-014
lhumerus -35.5759 -44.4686 117.065
lradius 67.7876
lwrist -8.80102
lhand -9.74336 8.66596
lfingers 7.12502
lthumb 16.2308 38.0065
rfemur -36.3411 -1.16315 17.4162
rtibia 23.6053
rfoot 1.49278 -12.1631
rtoes 6.11308
lfemur 5.32161 -7.72857 -22.0154
ltibia 22.3652
lfoot -12.7619 -3.42362
ltoes -22.5229
121
root 13.3819 17.5558 5.08226 184.401 -88.2276 -175.72
lowerback 0.845941 -3.10886 -1.01817
upperback -2.05184 -4.17637 5.54111
thorax -2.10327 -2.07318 6.42155
lowerneck -18.3171 -1.01143 -2.41634
upperneck 11.3871 -1.83781 6.61259
head 6.55041 -0.432565 2.33294
rclavicle 1.66979e-014 -1.59028e-015
rhumerus -55.167 -29.0877 -48.2261
rradius 12.5128
rwrist 38.362
rhand -4.52166 -26.6052
rfingers 7.12502
rthumb 21.2529 -55.46
lclavicle 1.66979e-014 -1.59028e-015
lhumerus -35.2381 -43.2572 116.538
lradius 66.0181
lwrist -9.20364
lhand -10.0788 8.86596
lfingers 7.12502
lthumb 15.9078 38.2326
rfemur -36.1327 -1.19476 17.8313
rtibia 24.0397
rfoot 1.90825 -11.6835
rtoes 7.93246
lfemur 5.00615 -7.68317 -21.7261
ltibia 23.5613
lfoot -11.7564 -3.69457
ltoes -23.7158
122
root 13.2078 17.5757 5.04212 182.376 -88.1066 -173.641
lowerback 0.767194 -3.03389 -0.95452
upperback -2.08548 -4.07886 5.66211
thorax -2.10113 -2.02661 6.50877
lowerneck -18.2877 -1.03604 -2.43111
upperneck 11.4438 -1.84234 6.45359
head 6.56183 -0.447808 2.28357
rclavicle -2.04748e-014 2.22639e-014
rhumerus -55.2003 -29.5265 -47.5673
rradius 12.4633
rwrist 38.8494
rhand -4.98466 -26.9692
rfingers 7.12502
rthumb 20.8081 -55.8735
lclavicle -2.04748e-014 2.22639e-014
lhumerus -34.8373 -41.9814 115.96
lradius 64.0701
lwrist -9.6841
lhand -10.4553 9.13922
lfingers 7.12502
lthumb 15.5452 38.5344
rfemur -35.8416 -1.20599 18.1668
rtibia 24.4352
rfoot 2.10294 -11.18
rtoes 9.7998
lfemur 4.59859 -7.57881 -21.4821
ltibia 24.9075
lfoot -10.5639 -4.04936
ltoes -24.7419
123
root 13.0353 17.5974 5.00064 181.464 -88.0118 -172.76
lowerback 0.780212 -2.96301 -0.938772
upperback -2.10423 -3.98554 5.76205
thorax -2.13323 -1.98028 6.60667
lowerneck -18.2714 -1.06533 -2.45438
upperneck 11.5344 -1.85417 6.30364
head 6.58695 -0.465578 2.23805
rclavicle -1.94809e-014 6.20208e-014
rhumerus -55.1021 -29.8676 -47.1435
rradius 12.4313
rwrist 39.1542
rhand -5.45703 -27.2772
rfingers 7.12502
rthumb 20.3542 -56.2306
lclavicle -1.94809e-014 6.20208e-014
lhumerus -34.3594 -40.6589 115.319
lradius 61.9498
lwrist -10.2503
lhand -10.8778 9.52562
lfingers 7.12502
lthumb 15.1382 38.952
rfemur -35.388 -1.17416 18.4376
rtibia 24.7519
rfoot 2.11905 -10.7193
rtoes 11.6061
lfemur 4.14808 -7.42948 -21.2495
ltibia 26.3968
lfoot -9.14619 -4.47346
ltoes -25.5288
124
root 12.8645 17.6191 4.9583 180.353 -87.9394 -171.717
lowerback 0.831566 -2.89386 -0.918242
upperback -2.12021 -3.89334 5.85018
thorax -2.1853 -1.93402 6.69176
lowerneck -18.2648 -1.10086 -2.47865
upperneck 11.6555 -1.87652 6.15905
head 6.62411 -0.487587 2.19351
rclavicle -5.36719e-015 -3.02153e-014
rhumerus -54.8746 -30.1064 -46.9612
rradius 12.4161
rwrist 39.2849
rhand -5.92246 -27.5392
rfingers 7.12502
rthumb 19.9069 -56.5396
lclavicle -5.36719e-015 -3.02153e-014
lhumerus -33.8017 -39.277 114.604
lradius 59.6831
lwrist -10.8324
lhand -11.2419 9.97988
lfingers 7.12502
lthumb 14.7875 39.4323
rfemur -34.8415 -1.08609 18.6919
rtibia 24.9997
rfoot 2.0363 -10.341
rtoes 13.2974
lfemur 3.60103 -7.22521 -20.9735
ltibia 28.0138
lfoot -7.4585 -4.93706
ltoes -25.954
125
root 12.6954 17.641 4.91532 178.039 -87.8917 -169.506
lowerback 0.914669 -2.82965 -0.851176
upperback -2.13179 -3.80614 5.93477
thorax -2.2535 -1.89086 6.74837
lowerneck -18.2531 -1.14024 -2.50688
upperneck 11.7909 -1.90563 6.02559
head 6.66555 -0.512197 2.15253
rclavicle -1.45113e-014 -2.22639e-014
rhumerus -54.5135 -30.2408 -47.0207
rradius 12.414
rwrist 39.2612
rhand -6.36676 -27.7467
rfingers 7.12502
rthumb 19.4798 -56.7909
lclavicle -1.45113e-014 -2.22639e-014
lhumerus -33.1682 -37.8308 113.813
lradius 57.2811
lwrist -11.4485
lhand -11.5592 10.5075
lfingers 7.12502
lthumb 14.4818 39.9822
rfemur -34.1933 -0.946126 18.9755
rtibia 25.1603
rfoot 1.91064 -10.0646
rtoes 14.841
lfemur 2.97244 -6.97099 -20.6156
ltibia 29.7196
lfoot -5.46435 -5.39622
ltoes -25.9117
126
root 12.5278 17.6624 4.87186 173.936 -87.8582 -165.509
lowerback 0.987833 -2.77138 -0.71078
upperback -2.14428 -3.72577 6.02263
thorax -2.32058 -1.8528 6.7659
lowerneck -18.2341 -1.18252 -2.53883
upperneck 11.9342 -1.94056 5.90614
head 6.70886 -0.53882 2.11605
rclavicle 2.60408e-014 -2.06736e-014
rhumerus -54.0363 -30.3101 -47.268
rradius 12.4181
rwrist 39.1344
rhand -6.78271 -27.8762
rfingers 7.12502
rthumb 19.0798 -56.9603
lclavicle 2.60408e-014 -2.06736e-014
lhumerus -32.4588 -36.3032 112.936
lradius 54.7622
lwrist -12.0919
lhand -11.8406 11.0764
lfingers 7.12502
lthumb 14.2107 40.5703
rfemur -33.4931 -0.773502 19.3303
rtibia 25.2434
rfoot 1.74361 -9.87031
rtoes 16.0804
lfemur 2.23767 -6.67435 -20.1504
ltibia 31.4888
lfoot -3.16036 -5.80135
ltoes -25.3553
127
root 12.3614 17.6826 4.828 167.801 -87.82 -159.458
lowerback 1.00951 -2.71838 -0.484098
upperback -2.15423 -3.65244 6.11724
thorax -2.35983 -1.82103 6.73786
lowerneck -18.213 -1.22698 -2.57224
upperneck 12.0705 -1.98035 5.80185
head 6.75 -0.566874 2.08409
rclavicle -2.00773e-014 -6.20208e-014
rhumerus -53.4315 -30.3237 -47.704
rradius 12.4346
rwrist 38.8919
rhand -7.12253 -27.9649
rfingers 7.12502
rthumb 18.753 -57.0809
lclavicle -2.00773e-014 -6.20208e-014
lhumerus -31.6578 -34.6667 111.95
lradius 52.1516
lwrist -12.8081
lhand -12.0287 11.6637
lfingers 7.12502
lthumb 14.0293 41.1702
rfemur -32.784 -0.576715 19.7744
rtibia 25.2721
rfoot 1.48873 -9.74301
rtoes 16.9987
lfemur 1.39131 -6.35148 -19.5709
ltibia 33.292
lfoot -0.589848 -6.12901
ltoes -24.2296
